<?xml version="1.0" encoding="utf-8"?>
<!-- Generator: Adobe Illustrator 21.0.2, SVG Export Plug-In . SVG Version: 6.00 Build 0)  -->
<svg version="1.1" id="Layer_1" xmlns="http://www.w3.org/2000/svg" xmlns:xlink="http://www.w3.org/1999/xlink" x="0px" y="0px"
	 viewBox="0 0 500 500" style="enable-background:new 0 0 500 500;" xml:space="preserve">
<style type="text/css">
	.st0{fill:#010101;}
</style>
<path class="st0" d="M495,470.8L352.6,328.4c-2-2-4.5-3.4-7-4.2c66.3-77.2,63-193.5-10.1-266.6C297,19.2,246.7,0,196.5,0
	C146.2,0,95.9,19.2,57.5,57.5c-76.7,76.7-76.7,201.1,0,277.8c38.4,38.4,88.6,57.5,138.9,57.5c45.6,0,91-15.9,127.7-47.4
	c0.8,2.6,2.1,5,4.2,7L470.8,495c3.3,3.3,7.7,5,12.1,5s8.8-1.7,12.1-5C501.7,488.3,501.7,477.4,495,470.8z M196.5,358.7
	c-43.3,0-84.1-16.9-114.7-47.5s-47.5-71.4-47.5-114.7s16.9-84.1,47.5-114.7s71.4-47.5,114.7-47.5s84.1,16.9,114.7,47.5
	s47.5,71.4,47.5,114.7s-16.9,84.1-47.5,114.7S239.8,358.7,196.5,358.7z"/>
</svg>
