<?xml version="1.0" encoding="utf-8"?>
<!-- Generator: Adobe Illustrator 21.0.2, SVG Export Plug-In . SVG Version: 6.00 Build 0)  -->
<svg version="1.1" id="Layer_1" xmlns="http://www.w3.org/2000/svg" xmlns:xlink="http://www.w3.org/1999/xlink" x="0px" y="0px"
	 viewBox="0 0 500 500" style="enable-background:new 0 0 500 500;" xml:space="preserve">
<style type="text/css">
	.st0{fill:#010101;}
</style>
<g>
	<path class="st0" d="M440.4,421.6c-0.4-4-6.9-11.4-19.7-22c-3.4-3.2-8.3-7.6-14.6-13.2c-6.3-5.6-12.1-10.8-17.2-15.5
		c-5.1-4.7-9.9-9.2-14.4-13.5c-0.7-0.8-2.8-3.2-6.5-7.3c-3.6-4-6.8-7.1-9.5-9.3c-2.7-2.1-5.4-3.6-8.3-4.2c-4.1-1-10,0.8-17.6,5.2
		c-7.6,4.4-14.8,9.5-21.6,15.3c-6.8,5.7-13.8,10.9-21,15.4c-7.2,4.5-12.6,6.4-16.4,5.5c-1.9-0.4-4.1-1.5-6.6-3.2
		c-2.5-1.7-4.5-3.1-5.8-4.1c-1.3-1.1-3.4-3.1-6.4-6.1c-3-3-4.7-4.7-5.1-5c-24.7-22.4-44.8-46.1-60.3-71.1
		c-15.5-25.1-27.8-53.6-36.9-85.7c-0.1-0.5-0.8-2.7-2.2-6.7c-1.3-4-2.2-6.9-2.6-8.5c-0.4-1.6-0.8-3.9-1.1-7c-0.4-3-0.4-5.5,0.1-7.4
		c0.9-3.7,4.9-7.8,12.2-12.2c7.3-4.4,15-8.4,23.1-11.9c8.2-3.5,15.9-7.7,23.3-12.6c7.4-4.8,11.5-9.3,12.5-13.5
		c0.7-2.9,0.6-6-0.1-9.4c-0.7-3.3-2.1-7.5-4.1-12.6c-2-5.1-3.2-8.1-3.6-9c-1.9-5.9-3.8-12.2-5.7-18.9c-1.9-6.7-4-14.1-6.2-22.3
		c-2.2-8.2-4-14.5-5.4-19c-3.8-16.2-7.5-25.3-10.9-27.5c-1.3-1-3.4-1.8-6.3-2.5c-5.6-1.3-13.1-2-22.6-2c-9.5,0-17.1,0.5-22.8,1.5
		c-11.4,1.9-25.3,12-41.8,30.2c-15.1,17-24.9,35-29.4,54c-1.3,5.6-2.2,11.1-2.7,16.6c-0.5,5.4-0.6,11.7-0.3,18.8
		c0.3,7.1,0.7,12.3,1,15.8c0.4,3.5,1.2,9.7,2.3,18.7c1.2,9,1.8,14.5,2,16.5c2.5,22,6.8,42.1,13,60.4c10.1,30.3,26,63,47.7,97.8
		c21.6,34.9,43.8,63.6,66.4,86.2c13.6,13.7,29.7,26.5,48.3,38.5c1.7,1.1,6.4,4.1,13.9,9.2c7.6,5,12.8,8.5,15.7,10.4
		c2.9,1.9,7.5,4.5,13.7,8c6.2,3.4,11.8,6.1,16.9,8.1c5.1,2,10.5,3.6,16.1,4.9c19,4.5,39.5,3.7,61.5-2.3c23.6-6.7,38.8-14.7,45.6-24
		c3.5-4.6,7.3-11.2,11.5-19.7c4.2-8.5,6.9-15.6,8.2-21.2C440.5,425.4,440.7,423.2,440.4,421.6z"/>
</g>
</svg>
