<?xml version="1.0" encoding="utf-8"?>
<!-- Generator: Adobe Illustrator 21.0.2, SVG Export Plug-In . SVG Version: 6.00 Build 0)  -->
<svg version="1.1" id="Layer_1" xmlns="http://www.w3.org/2000/svg" xmlns:xlink="http://www.w3.org/1999/xlink" x="0px" y="0px"
	 viewBox="0 0 500 500" style="enable-background:new 0 0 500 500;" xml:space="preserve">
<g>
	<path d="M376.1,103.7H263.7V78.2h63.4V29.6h-63.4v0c0-2.8-2.3-5.1-5.1-5.1c-2.8,0-5.1,2.3-5.1,5.1v74.1h-75.4h-19H149
		c-42.6,0-78.4,29-88.9,68.3h9.6h0.9h10.7c9.9-27.9,36.5-48,67.7-48h29.1c39.6,0,71.9,32.2,71.9,71.9v187.4
		c0,39.6-32.2,71.9-71.9,71.9h-16.9H149c-24.2,0-45.7-12.1-58.7-30.6h-12H66.7c15.2,30.1,46.3,50.8,82.3,50.8h29.1c0,0,0,0,0,0
		h321.3V227C499.4,158.9,444.2,103.7,376.1,103.7z"/>
	<path d="M80,403h81.2h50.5V298.3l-50.5,39.1l-15.7,12.1L77.1,299L67,291.5L56.9,284L0.6,242.4V383c0,11,9,20,20,20H59h10.5H80z"/>
	<path d="M56.9,254l10.1,7.4l10.2,7.5l68.3,50.2l15.7-12l50.5-38.7v-72.3H77.1H67h-0.7h-9.5H20.6c-10,0-18.1,7.3-19.6,16.8l3.2,2.4
		L56.9,254z"/>
</g>
</svg>
