<?xml version="1.0" encoding="utf-8"?>
<!-- Generator: Adobe Illustrator 21.0.2, SVG Export Plug-In . SVG Version: 6.00 Build 0)  -->
<svg version="1.1" id="Layer_1" xmlns="http://www.w3.org/2000/svg" xmlns:xlink="http://www.w3.org/1999/xlink" x="0px" y="0px"
	 viewBox="0 0 500 500" style="enable-background:new 0 0 500 500;" xml:space="preserve">
<g>
	<path d="M128.1,278.8h201c8.9,0,16.1-7.2,16.1-16.1V145.6l-116.4,90.1L112,149.3v113.4C112,271.6,119.2,278.8,128.1,278.8z"/>
	<path d="M228.8,211.1l113.1-86.7l2.3-1.7c-2.2-6.2-8.1-10.7-15.1-10.7h-201c-8,0-14.6,5.9-15.8,13.6l2.6,1.9L228.8,211.1z"/>
	<path d="M500,235.5l-21.5-85H367.7v149.2H112.3v47.6H134c6.6-20,25.4-34.4,47.6-34.4c22.2,0,41,14.5,47.6,34.4h152.9
		c6.6-20,25.4-34.4,47.6-34.4c22.2,0,41,14.5,47.6,34.4H500v-47.6h-0.5L500,235.5z M394.9,172.6h62.2l16.7,62.2h-78.9V172.6z"/>
	<path d="M181.6,337.8c-7.9,0-14.9,3.7-19.5,9.5c-3.5,4.3-5.6,9.7-5.6,15.7c0,13.9,11.3,25.2,25.2,25.2s25.2-11.3,25.2-25.2
		c0-6-2.2-11.4-5.6-15.7C196.5,341.5,189.5,337.8,181.6,337.8z"/>
	<path d="M429.7,337.8c-7.9,0-14.9,3.7-19.5,9.5c-3.5,4.3-5.6,9.7-5.6,15.7c0,13.9,11.3,25.2,25.2,25.2s25.2-11.3,25.2-25.2
		c0-6-2.2-11.4-5.6-15.7C444.6,341.5,437.6,337.8,429.7,337.8z"/>
	<path d="M61.6,275.3H8.9c-4.9,0-8.9,4-8.9,8.9c0,4.9,4,8.9,8.9,8.9h52.7c4.9,0,8.9-4,8.9-8.9C70.5,279.3,66.5,275.3,61.6,275.3z"/>
	<path d="M61.6,227.6H25.9c-4.9,0-8.9,4-8.9,8.9c0,4.9,4,8.9,8.9,8.9h35.6c4.9,0,8.9-4,8.9-8.9C70.5,231.6,66.5,227.6,61.6,227.6z"
		/>
	<path d="M61.6,181H43.8c-4.9,0-8.9,4-8.9,8.9c0,4.9,4,8.9,8.9,8.9h17.8c4.9,0,8.9-4,8.9-8.9C70.5,185.1,66.5,181,61.6,181z"/>
</g>
</svg>
