<?xml version="1.0" encoding="utf-8"?>
<!-- Generator: Adobe Illustrator 21.0.2, SVG Export Plug-In . SVG Version: 6.00 Build 0)  -->
<svg version="1.1" id="Layer_1" xmlns="http://www.w3.org/2000/svg" xmlns:xlink="http://www.w3.org/1999/xlink" x="0px" y="0px"
	 viewBox="0 0 500 500" style="enable-background:new 0 0 500 500;" xml:space="preserve">
<g>
	<path d="M389.9,161.1L252.1,301.4L81.7,208.2l20.5,150.2c1.6,11.8,12.5,20.1,24.3,18.5l266.2-36.3c11.8-1.6,20.1-12.5,18.4-24.3
		L389.9,161.1z"/>
	<path d="M381.8,133.6l2.7-2.7c-4.1-7.8-12.7-12.7-21.9-11.4L96.3,155.8c-10.6,1.5-18.3,10.5-18.5,20.8l3.8,2.1l166,90.2
		L381.8,133.6z"/>
	<path d="M478.5,208.8l21.2-198.1c0.3-2.8-0.6-5.6-2.6-7.7c-1.9-2.1-4.7-3.1-7.5-3L187.6,14.5L10.6,0C7.9-0.2,5.1,0.8,3.1,2.8
		c-2,2-3.1,4.7-2.9,7.5L14,235.5L0.2,489.8c-0.2,2.8,0.9,5.5,2.9,7.4c2,1.9,4.7,2.9,7.4,2.8L323,478.9l166,21c0.4,0,0.8,0.1,1.2,0.1
		c2.5,0,4.8-0.9,6.7-2.7c2.1-2,3.2-4.8,3-7.7L478.5,208.8z M22.7,61.1h452.2l-1.6,15.2H23.6L22.7,61.1z M186.7,33.8
		c0.4,0,0.8,0,1.2,0l291.5-13.9L476,51.5H22.1l-1.9-31.3L186.7,33.8z M324.5,459.6c-0.6-0.1-1.2-0.1-1.9-0.1L20.1,480l13.3-244
		c0-0.4,0-0.7,0-1.1L24.2,86h448.1l-13,121.6c-0.1,0.6-0.1,1.2,0,1.8l20.4,269.9L324.5,459.6z"/>
	<path d="M281.3,399.2L96.8,422.7c-2.6,0.3-4.5,2.8-4.2,5.4c0.3,2.4,2.4,4.2,4.8,4.2c0.2,0,0.4,0,0.6,0l184.6-23.6
		c2.6-0.3,4.5-2.8,4.2-5.4C286.4,400.7,283.9,398.8,281.3,399.2z"/>
</g>
</svg>
