<?xml version="1.0" encoding="utf-8"?>
<!-- Generator: Adobe Illustrator 21.0.2, SVG Export Plug-In . SVG Version: 6.00 Build 0)  -->
<svg version="1.1" id="Layer_1" xmlns="http://www.w3.org/2000/svg" xmlns:xlink="http://www.w3.org/1999/xlink" x="0px" y="0px"
	 viewBox="0 0 499.2 155.6" style="enable-background:new 0 0 499.2 155.6;" xml:space="preserve">
<style type="text/css">
	.st0{fill:#414042;}
	.st1{fill:#EC3730;}
</style>
<g>
	<g>
		<polygon class="st0" points="137.7,12.2 126.4,12.2 126.4,1.5 159.5,1.5 159.5,12.2 148.3,12.2 148.3,71.8 137.7,71.8 		"/>
		<polygon class="st0" points="174.7,42 174.7,71.8 164.1,71.8 164.1,1.5 174.7,1.5 174.7,31.4 187.5,31.4 187.5,1.5 198.1,1.5 
			198.1,71.8 187.5,71.8 187.5,42 		"/>
		<polygon class="st0" points="205.6,71.8 205.6,1.5 235.8,1.5 235.8,12.1 216.2,12.1 216.2,31.3 230.5,31.3 230.5,42 216.2,42 
			216.2,61.2 235.8,61.2 235.8,71.8 		"/>
		<polygon class="st0" points="263,71.8 252.4,71.8 252.4,1.5 267.6,1.5 277.4,52 286.9,1.5 301.5,1.5 301.5,71.8 290.9,71.8 
			290.9,27.6 281.7,71.8 273.2,71.8 263,27.7 		"/>
		<path class="st0" d="M325.6,17.6l-3.9,27.7h7.9L325.6,17.6z M320.1,55.7l-2.6,16.2h-11l12-70.3H333l11.8,70.3h-11.2l-2.5-16.2
			H320.1z"/>
		<rect x="349.7" y="1.5" class="st0" width="10.6" height="70.3"/>
		<polygon class="st0" points="396.7,71.9 367.9,71.9 367.9,1.6 378.5,1.6 378.5,61.3 396.7,61.3 		"/>
		<rect x="402.1" y="1.5" class="st0" width="10.6" height="70.3"/>
		<polygon class="st0" points="434.1,1.5 448.1,48.8 448.1,1.5 458.7,1.5 458.7,71.8 447.3,71.8 432.7,26.8 432.7,71.8 422.1,71.8 
			422.1,1.5 		"/>
	</g>
	<g>
		<path class="st0" d="M482.4,72.7c-4.7,0-8.7-1.6-11.9-4.9c-3.3-3.3-4.9-7.2-4.9-11.8V17.6c0-4.7,1.6-8.6,4.9-11.9
			c3.3-3.3,7.3-4.9,11.9-4.9c4.7,0,8.6,1.6,11.9,4.9c3.2,3.3,4.9,7.3,4.9,11.9v8h-11v-8.2c0-1.7-0.6-3.1-1.8-4.3
			c-1.2-1.2-2.6-1.8-4.3-1.8c-1.7,0-3.1,0.6-4.3,1.8c-1.2,1.2-1.8,2.6-1.8,4.3v38.5c0,1.7,0.6,3.1,1.8,4.3c1.2,1.2,2.6,1.8,4.3,1.8
			c1.7,0,3.1-0.6,4.3-1.8c1.2-1.2,1.8-2.6,1.8-4.3V42h-5.9V31.4h16.9v24.6c0,4.7-1.6,8.6-4.9,11.9C490.9,71.1,487,72.7,482.4,72.7"
			/>
		<path class="st0" d="M157.4,101.4c0-1.8-0.6-3.3-1.7-4.4c-1.1-1.1-2.6-1.7-4.4-1.7h-6.4v22.5h6.4c1.7,0,3.1-0.6,4.3-1.8
			c1.2-1.2,1.8-2.6,1.8-4.3V101.4z M151.1,84.5c5.2,0,9.3,1.6,12.3,4.9c2.8,3.1,4.3,7.1,4.3,11.9v10.2c0,4.6-1.6,8.6-4.9,11.9
			c-3.2,3.3-7.2,4.9-11.7,4.9h-6.1v26.5h-10.6V84.5H151.1z"/>
	</g>
	<g>
		<polygon class="st0" points="171.7,84.4 171.7,154.8 201.9,154.8 201.9,144.1 182.3,144.1 182.3,124.9 196.6,124.9 196.6,114.3 
			182.3,114.3 182.3,95.1 201.9,95.1 201.9,84.4 		"/>
	</g>
	<g>
		<path class="st0" d="M228.2,100.2c0-1.7-0.6-3.1-1.8-4.3c-1.2-1.2-2.6-1.8-4.3-1.8c-1.7,0-3.1,0.6-4.3,1.8
			c-1.2,1.2-1.8,2.6-1.8,4.3v38.5c0,1.7,0.6,3.1,1.8,4.3c1.2,1.2,2.6,1.8,4.3,1.8c1.7,0,3.1-0.6,4.3-1.8c1.2-1.2,1.8-2.6,1.8-4.3
			V100.2z M222.5,83.6c4.7,0,8.6,1.6,11.9,4.9c3.3,3.3,4.9,7.3,4.9,11.9v38.4c0,4.7-1.6,8.7-4.9,11.9c-3.3,3.3-7.2,4.9-11.9,4.9
			c-4.7,0-8.6-1.6-11.9-4.9c-3.3-3.3-4.9-7.2-4.9-11.9v-38.4c0-4.7,1.7-8.6,4.9-11.9C213.9,85.2,217.9,83.6,222.5,83.6"/>
		<path class="st0" d="M269.7,101.4c0-1.8-0.6-3.3-1.7-4.4c-1.1-1.1-2.6-1.7-4.4-1.7h-6.4v22.5h6.4c1.7,0,3.1-0.6,4.3-1.8
			c1.2-1.2,1.8-2.6,1.8-4.3V101.4z M263.4,84.5c5.2,0,9.3,1.6,12.3,4.9c2.8,3.1,4.3,7.1,4.3,11.9v10.2c0,4.6-1.6,8.6-4.9,11.9
			c-3.2,3.3-7.2,4.9-11.7,4.9h-6.1v26.5h-10.6V84.5H263.4z"/>
	</g>
	<polygon class="st0" points="284,84.5 284,154.8 312.9,154.8 312.9,144.2 294.6,144.2 294.6,84.5 	"/>
	<polygon class="st0" points="317.8,84.4 317.8,154.8 347.9,154.8 347.9,144.1 328.4,144.1 328.4,124.9 342.7,124.9 342.7,114.3 
		328.4,114.3 328.4,95.1 347.9,95.1 347.9,84.4 	"/>
	<path class="st1" d="M51.3,54.3L0,16.4v49.8c0,3.9,3.2,7.1,7.1,7.1h88.3c3.9,0,7.1-3.2,7.1-7.1V14.8L51.3,54.3z"/>
	<path class="st1" d="M1.3,6.8l50.1,36.8L101,5.5l1-0.8C101,2,98.4,0,95.4,0H7.1C3.6,0,0.7,2.6,0.1,6L1.3,6.8z"/>
</g>
</svg>
